<?xml version="1.0" encoding="UTF-8" standalone="no"?>
<!-- Created with Inkscape (http://www.inkscape.org/) -->

<svg
   width="64pt"
   height="64pt"
   viewBox="0 0 22.577778 22.577778"
   version="1.1"
   id="svg831"
   inkscape:version="1.1.2 (b8e25be833, 2022-02-05)"
   sodipodi:docname="Export - Unblash - 64px.svg"
   inkscape:export-filename="E:\Icon Design\TR Icon Design Project\Carlos - Icon Design Project\2023\Januari 2023\Done\Flat\04 - Filter Funnel.png"
   inkscape:export-xdpi="576"
   inkscape:export-ydpi="576"
   xmlns:inkscape="http://www.inkscape.org/namespaces/inkscape"
   xmlns:sodipodi="http://sodipodi.sourceforge.net/DTD/sodipodi-0.dtd"
   xmlns="http://www.w3.org/2000/svg"
   xmlns:svg="http://www.w3.org/2000/svg"
   xmlns:rdf="http://www.w3.org/1999/02/22-rdf-syntax-ns#"
   xmlns:cc="http://creativecommons.org/ns#"
   xmlns:dc="http://purl.org/dc/elements/1.1/">
  <defs
     id="defs825">
    <pattern
       id="EMFhbasepattern"
       patternUnits="userSpaceOnUse"
       width="6"
       height="6"
       x="0"
       y="0" />
    <pattern
       id="EMFhbasepattern-9"
       patternUnits="userSpaceOnUse"
       width="6"
       height="6"
       x="0"
       y="0" />
    <pattern
       id="EMFhbasepattern-0"
       patternUnits="userSpaceOnUse"
       width="6"
       height="6"
       x="0"
       y="0" />
    <pattern
       id="EMFhbasepattern-7"
       patternUnits="userSpaceOnUse"
       width="6"
       height="6"
       x="0"
       y="0" />
    <pattern
       id="EMFhbasepattern-2"
       patternUnits="userSpaceOnUse"
       width="6"
       height="6"
       x="0"
       y="0" />
    <pattern
       id="EMFhbasepattern-98"
       patternUnits="userSpaceOnUse"
       width="6"
       height="6"
       x="0"
       y="0" />
    <pattern
       id="EMFhbasepattern-6"
       patternUnits="userSpaceOnUse"
       width="6"
       height="6"
       x="0"
       y="0" />
    <pattern
       id="EMFhbasepattern-01"
       patternUnits="userSpaceOnUse"
       width="6"
       height="6"
       x="0"
       y="0" />
    <pattern
       id="EMFhbasepattern-07"
       patternUnits="userSpaceOnUse"
       width="6"
       height="6"
       x="0"
       y="0" />
    <pattern
       id="EMFhbasepattern-8"
       patternUnits="userSpaceOnUse"
       width="6"
       height="6"
       x="0"
       y="0" />
    <pattern
       id="EMFhbasepattern-4"
       patternUnits="userSpaceOnUse"
       width="6"
       height="6"
       x="0"
       y="0" />
    <pattern
       id="EMFhbasepattern-40"
       patternUnits="userSpaceOnUse"
       width="6"
       height="6"
       x="0"
       y="0" />
    <pattern
       id="EMFhbasepattern-08"
       patternUnits="userSpaceOnUse"
       width="6"
       height="6"
       x="0"
       y="0" />
    <pattern
       id="EMFhbasepattern-04"
       patternUnits="userSpaceOnUse"
       width="6"
       height="6"
       x="0"
       y="0" />
    <pattern
       id="EMFhbasepattern-014"
       patternUnits="userSpaceOnUse"
       width="6"
       height="6"
       x="0"
       y="0" />
    <pattern
       id="EMFhbasepattern-27"
       patternUnits="userSpaceOnUse"
       width="6"
       height="6"
       x="0"
       y="0" />
    <pattern
       id="EMFhbasepattern-09"
       patternUnits="userSpaceOnUse"
       width="6"
       height="6"
       x="0"
       y="0" />
    <pattern
       id="EMFhbasepattern-5"
       patternUnits="userSpaceOnUse"
       width="6"
       height="6"
       x="0"
       y="0" />
    <pattern
       id="EMFhbasepattern-018"
       patternUnits="userSpaceOnUse"
       width="6"
       height="6"
       x="0"
       y="0" />
  </defs>
  <sodipodi:namedview
     id="base"
     pagecolor="#ffffff"
     bordercolor="#666666"
     borderopacity="1.0"
     inkscape:pageopacity="0.0"
     inkscape:pageshadow="2"
     inkscape:zoom="3.7537427"
     inkscape:cx="38.494913"
     inkscape:cy="54.612161"
     inkscape:document-units="pt"
     inkscape:current-layer="layer1"
     showgrid="false"
     units="pt"
     inkscape:window-width="958"
     inkscape:window-height="1041"
     inkscape:window-x="-7"
     inkscape:window-y="0"
     inkscape:window-maximized="0"
     inkscape:pagecheckerboard="true"
     inkscape:showpageshadow="false"
     inkscape:object-paths="true"
     inkscape:snap-intersection-paths="true"
     inkscape:snap-smooth-nodes="true"
     inkscape:snap-midpoints="true"
     showguides="true"
     inkscape:snap-bbox="true"
     inkscape:bbox-nodes="true"
     inkscape:snap-nodes="false"
     inkscape:snap-global="true"
     inkscape:snap-others="false">
    <inkscape:grid
       type="xygrid"
       id="grid1378" />
    <sodipodi:guide
       position="0.97013831,21.607643"
       orientation="78.000048,0"
       id="guide1380"
       inkscape:locked="false" />
    <sodipodi:guide
       position="0.97013831,0.97013129"
       orientation="0,78.000005"
       id="guide1382"
       inkscape:locked="false" />
    <sodipodi:guide
       position="21.607639,0.97013129"
       orientation="-78.000048,0"
       id="guide1384"
       inkscape:locked="false" />
    <sodipodi:guide
       position="21.607639,21.607643"
       orientation="0,-78.000005"
       id="guide1386"
       inkscape:locked="false" />
  </sodipodi:namedview>
  <metadata
     id="metadata828">
    <rdf:RDF>
      <cc:Work
         rdf:about="">
        <dc:format>image/svg+xml</dc:format>
        <dc:type
           rdf:resource="http://purl.org/dc/dcmitype/StillImage" />
      </cc:Work>
    </rdf:RDF>
  </metadata>
  <g
     inkscape:label="Icon"
     inkscape:groupmode="layer"
     id="layer1"
     transform="translate(0,-274.42223)">
    <g
       id="g9728"
       style="display:inline;stroke-width:0.792885"
       transform="matrix(1.2612171,0,0,1.2612171,-76.330838,-40.692747)">
      <path
         style="color:#000000;fill:#e2f0fa;fill-opacity:1;stroke-width:2.99673;stroke-linecap:round;stroke-linejoin:round;-inkscape-stroke:none"
         d="M 267.00174,-91.160154 V -102.1875 c 1.03967,-0.40782 1.78712,-1.4255 1.78711,-2.59961 v -0.89258 c 2e-5,-1.52666 -1.2643,-2.7832 -2.79101,-2.7832 h -6.99589 c -1.52671,0 -2.79101,1.25654 -2.79101,2.7832 v 0.89258 c 0,1.17321 0.74673,2.18921 1.78515,2.59766 v 11.037106 l -9.05682,13.863286 c -1.43025,2.247533 0.24416,5.292968 2.90821,5.292968 h 21.45117 c 2.66404,0 4.33847,-3.045435 2.9082,-5.292968 z"
         transform="matrix(0.26458334,0,0,0.26458334,0,280.06666)"
         id="rect38814-5"
         sodipodi:nodetypes="ccsssssscccsscc" />
      <path
         id="path2139946"
         style="color:#000000;fill:#c8dae5;fill-opacity:1;stroke-width:2.99673;stroke-linecap:round;stroke-linejoin:round;-inkscape-stroke:none"
         d="m 263.99805,-108.46289 c 1.52671,0 2.79103,1.25658 2.79101,2.7832 v 0.89258 c 10e-6,1.17411 -0.74743,2.1918 -1.78711,2.59961 v 11.027344 l 9.20508,13.871094 c 1.43027,2.247533 -0.24416,5.292968 -2.9082,5.292968 h 2 c 2.66404,0 4.33847,-3.045435 2.9082,-5.292968 l -9.20508,-13.871094 V -102.1875 c 1.03967,-0.40782 1.78712,-1.4255 1.78711,-2.59961 v -0.89258 c 2e-5,-1.52666 -1.2643,-2.7832 -2.79101,-2.7832 z"
         transform="matrix(0.26458334,0,0,0.26458334,0,280.06666)" />
      <path
         id="path41144-5"
         style="fill:#fdb721;fill-opacity:1;stroke:none;stroke-width:1.58577;stroke-linecap:round;stroke-linejoin:round;stop-color:#000000"
         d="m 271.23807,-84.779295 c -4.20657,1.373773 -8.23079,-1.575137 -11.33789,-1.626953 l 2.1e-4,-2e-6 c -3.02381,0 -4.40165,1.462463 -6.90625,2.908203 l -4.05487,6.208989 c -1.43025,2.247533 0.24416,5.292968 2.90821,5.292968 h 21.45117 c 2.66404,0 4.33847,-3.045435 2.9082,-5.292968 z"
         transform="matrix(0.26458334,0,0,0.26458334,0,280.06666)"
         sodipodi:nodetypes="cccccsscc" />
      <path
         id="path42513-3"
         style="color:#000000;fill:#de9902;fill-opacity:1;stroke-width:2.99671;stroke-linecap:round;stroke-linejoin:round;-inkscape-stroke:none"
         d="m 257.21484,-82.822266 a 0.89285914,0.89285914 0 0 0 -0.89648,0.896485 0.89285914,0.89285914 0 0 0 0.89648,0.890625 0.89285914,0.89285914 0 0 0 0.89063,-0.890625 0.89285914,0.89285914 0 0 0 -0.89063,-0.896485 z m 11.61133,0.894532 a 0.89285914,0.89285914 0 0 0 -0.89648,0.896484 0.89285914,0.89285914 0 0 0 0.89648,0.888672 0.89285914,0.89285914 0 0 0 0.89063,-0.888672 0.89285914,0.89285914 0 0 0 -0.89063,-0.896484 z m -6.25,0.892578 a 0.89285914,0.89285914 0 0 0 -0.89648,0.896484 0.89285914,0.89285914 0 0 0 0.89648,0.888672 0.89285914,0.89285914 0 0 0 0.88867,-0.888672 0.89285914,0.89285914 0 0 0 -0.88867,-0.896484 z m -3.57422,2.677734 a 0.89285914,0.89285914 0 0 0 -0.89648,0.896484 0.89285914,0.89285914 0 0 0 0.89648,0.890626 0.89285914,0.89285914 0 0 0 0.88867,-0.890626 0.89285914,0.89285914 0 0 0 -0.88867,-0.896484 z m 11.60938,0 a 0.89285914,0.89285914 0 0 0 -0.89649,0.896484 0.89285914,0.89285914 0 0 0 0.89649,0.888672 0.89285914,0.89285914 0 0 0 0.89062,-0.888672 0.89285914,0.89285914 0 0 0 -0.89062,-0.896484 z m -16.07031,0.892578 a 0.89285914,0.89285914 0 0 0 -0.89649,0.896485 0.89285914,0.89285914 0 0 0 0.89649,0.890625 0.89285914,0.89285914 0 0 0 0.88867,-0.890625 0.89285914,0.89285914 0 0 0 -0.88867,-0.896485 z m 11.60351,0 a 0.89285914,0.89285914 0 0 0 -0.89648,0.896485 0.89285914,0.89285914 0 0 0 0.89648,0.890625 0.89285914,0.89285914 0 0 0 0.88867,-0.890625 0.89285914,0.89285914 0 0 0 -0.88867,-0.896485 z"
         transform="matrix(0.26458334,0,0,0.26458334,0,280.06666)" />
      <path
         style="color:#000000;fill:#fec397;fill-opacity:1;stroke-width:0.209784;stroke-linecap:round;stroke-linejoin:round;-inkscape-stroke:none"
         d="m 66.805697,265.94656 v -2.36058 c 0,-0.21849 -0.05564,-0.43325 -0.161748,-0.62425 l -1.082103,-1.94768 c -0.08123,-0.14621 -0.173233,-0.28619 -0.275437,-0.41858 l -0.297656,-0.38551 0.364837,-0.63045 c 0.25832,-0.44743 0.204967,-1.01185 -0.130741,-1.40457 l -0.167437,-0.19635 0.07958,-0.13746 c 0.25832,-0.44743 0.206002,-1.01185 -0.12971,-1.40457 l -0.167947,-0.19637 0.05323,-0.092 c 0.205983,-0.3551 0.17386,-0.80225 -0.08113,-1.12397 l -0.10232,-0.12867 -0.965787,0.0713 -2.303219,3.98943 c -0.129937,0.22507 -0.176202,0.48946 -0.129707,0.74517 l 0.427879,2.35334 c 0.03995,0.21969 0.145968,0.42244 0.303858,0.58033 l 1.326017,1.3255 v 2.00711 l 0.264645,0.26447 h 2.910416 z"
         id="path406956"
         sodipodi:nodetypes="csccccccccccccccccccccccc" />
      <path
         id="path13082"
         style="color:#000000;fill:#4f697d;fill-opacity:1;stroke-width:2.99673;stroke-linecap:round;stroke-linejoin:round;-inkscape-stroke:none"
         d="m 263.99805,-100.00391 a 1.0000006,1.0000006 0 0 0 -0.9961,1.00391 1.0000006,1.0000006 0 0 0 0.9961,0.998047 h 3.0039 v -2.001957 z m 0,4.001957 a 1.0000006,1.0000006 0 0 0 -0.9961,1.003906 1.0000006,1.0000006 0 0 0 0.9961,0.996094 h 3.0039 v -2 z m 0,4 a 1.0000006,1.0000006 0 0 0 -0.9961,1.003906 1.0000006,1.0000006 0 0 0 0.9961,0.998047 h 3.77343 l -0.76953,-1.160156 v -0.841797 z"
         transform="matrix(0.26458334,0,0,0.26458334,0,280.06666)" />
      <path
         style="color:#000000;fill:#f2a069;stroke-width:0.792885;stroke-linecap:round;stroke-linejoin:round;-inkscape-stroke:none"
         d="m 61.438151,258.95703 c -0.129936,0.22507 -0.175399,0.48843 -0.128906,0.74414 l 0.427734,2.35352 c 0.03995,0.21969 0.144843,0.42218 0.302735,0.58008 l 1.326172,1.32617 v 2.27127 h 0.529297 v -2.38065 c -6.2e-5,-0.0704 -0.02818,-0.13788 -0.07813,-0.1875 l -1.402344,-1.40234 c -0.08182,-0.0818 -0.137502,-0.18693 -0.158203,-0.30078 l -0.427735,-2.35352 c -0.02409,-0.13247 -9.13e-4,-0.27011 0.06641,-0.38672 l 2.304687,-3.98828 c 0.02439,-0.0422 0.0615,-0.046 0.0918,-0.008 l 0.103516,0.12891 c 0.120936,0.15258 0.134798,0.36089 0.03711,0.52929 l -1.011719,1.7461 c -0.07318,0.12622 -0.03037,0.28787 0.0957,0.36132 0.126227,0.0732 0.287877,0.0304 0.361328,-0.0957 l 1.013672,-1.74609 c 0.205983,-0.3551 0.17296,-0.80133 -0.08203,-1.12305 l -0.101562,-0.12891 c -0.224234,-0.30278 -0.754305,-0.29755 -0.966797,0.0705 z"
         id="path406409"
         sodipodi:nodetypes="ccccccccccccccccccccccccc" />
      <path
         style="color:#000000;fill:#f2a069;stroke-width:0.792885;stroke-linecap:round;stroke-linejoin:round;-inkscape-stroke:none"
         d="m 66.805348,266.23221 v -2.64622 c 0,-0.2185 -0.056,-0.43205 -0.16211,-0.62305 l -1.082031,-1.94922 c -0.08122,-0.1462 -0.173189,-0.28557 -0.27539,-0.41797 l -1.425782,-1.84765 c -0.14463,-0.18734 -0.366533,-0.27152 -0.582031,-0.25782 l -0.544931,0.33003 -0.07617,0.13281 c -0.241754,0.4122 -0.22796,0.92662 0.03711,1.32422 l 1.246093,1.86914 c 0.08142,0.12138 0.245832,0.15376 0.367188,0.0723 0.121374,-0.0814 0.153733,-0.24584 0.07227,-0.36719 l -1.244141,-1.86719 c -0.153345,-0.23001 -0.163297,-0.5252 -0.02344,-0.76367 l 0.07813,-0.13281 c 0.05899,-0.10059 0.180696,-0.10792 0.251954,-0.0156 l 1.425781,1.84765 c 0.08599,0.1114 0.16408,0.22855 0.232422,0.35156 l 1.082031,1.94727 c 0.06245,0.11241 0.09375,0.2386 0.09375,0.36719 v 2.64622 z"
         id="path406411"
         sodipodi:nodetypes="csccccccccccccccccccscc" />
      <path
         style="color:#000000;fill:#f2a069;stroke-width:0.792885;stroke-linecap:round;stroke-linejoin:round;-inkscape-stroke:none"
         d="m 64.285808,256.13867 -1.521485,2.63672 c -0.07286,0.12674 -0.02913,0.28855 0.09766,0.36133 0.12675,0.0728 0.288563,0.0291 0.361329,-0.0977 l 1.333984,-2.3125 0.04687,0.0547 c 0.191229,0.2237 0.219413,0.54005 0.07227,0.79492 l -0.933594,1.61719 c -0.07286,0.12674 -0.02913,0.28855 0.09766,0.36133 0.126227,0.0732 0.287877,0.0304 0.361328,-0.0957 l 0.933594,-1.61718 c 0.258323,-0.44743 0.204852,-1.01159 -0.130859,-1.4043 l -0.289063,-0.33984 z"
         id="path406413"
         sodipodi:nodetypes="cccccccccccccc" />
      <path
         style="color:#000000;fill:#f2a069;stroke-width:0.792885;stroke-linecap:round;stroke-linejoin:round;-inkscape-stroke:none"
         d="m 64.502604,257.875 -0.759765,1.31836 c -0.07419,0.12717 -0.0303,0.29045 0.09766,0.36328 0.12675,0.0728 0.288562,0.0291 0.361328,-0.0977 l 0.572266,-0.99414 0.04687,0.0547 c 0.191229,0.2237 0.221366,0.54006 0.07422,0.79492 l -0.453125,0.78516 c -0.07319,0.12623 -0.03038,0.28788 0.0957,0.36133 0.12675,0.0728 0.288562,0.0291 0.361328,-0.0977 l 0.453125,-0.7832 c 0.258323,-0.44743 0.206805,-1.01159 -0.128906,-1.4043 l -0.289063,-0.33984 z"
         id="path406415"
         sodipodi:nodetypes="cccccccccccccc" />
      <path
         style="color:#000000;fill:#f2a069;stroke-width:0.792885;stroke-linecap:round;stroke-linejoin:round;-inkscape-stroke:none"
         d="m 62.175781,262.4668 0.503906,-0.22657 c 0.133913,-0.0592 0.194309,-0.21586 0.134766,-0.34961 -0.05992,-0.13316 -0.21639,-0.1926 -0.349609,-0.13281 l -0.503907,0.22461 z"
         id="path406417"
         sodipodi:nodetypes="cccccc" />
      <path
         style="color:#000000;fill:#f2a069;stroke-width:0.792885;stroke-linecap:round;stroke-linejoin:round;-inkscape-stroke:none"
         d="m 63.630859,264.11523 h 0.263672 c 0.146176,5.8e-4 0.265121,-0.11749 0.265625,-0.26367 5.77e-4,-0.14694 -0.118687,-0.2662 -0.265625,-0.26562 h -0.263672 z"
         id="path406419"
         sodipodi:nodetypes="cccccc" />
      <path
         style="color:#000000;fill:#fec397;fill-opacity:1;stroke-width:0.209784;stroke-linecap:round;stroke-linejoin:round;-inkscape-stroke:none"
         d="m 75.203389,254.96686 2.303219,3.98943 c 0.129937,0.22507 0.176202,0.48946 0.129707,0.74517 l -0.427879,2.35334 c -0.03995,0.21969 -0.145968,0.42244 -0.303858,0.58033 l -1.326017,1.3255 v 2.00711 l -0.264645,0.26447 H 72.4035 l -0.26448,-0.28565 v -2.36058 c 0,-0.21849 0.05564,-0.43325 0.161748,-0.62425 l 1.082103,-1.94768 c 0.08123,-0.14621 0.173233,-0.28619 0.275437,-0.41858 l 0.297656,-0.38551 -0.364837,-0.63045 c -0.25832,-0.44743 -0.204967,-1.01185 0.130741,-1.40457 l 0.167437,-0.19635 -0.07958,-0.13746 c -0.25832,-0.44743 -0.206002,-1.01185 0.12971,-1.40457 l 0.167947,-0.19637 -0.05323,-0.092 c -0.205983,-0.3551 -0.17386,-0.80225 0.08113,-1.12397 l 0.10232,-0.12867 c 0.109913,-0.13867 0.269952,-0.20952 0.466615,-0.21523 0.219431,0.0144 0.398059,0.11142 0.499172,0.28654 z"
         id="path507806"
         sodipodi:nodetypes="ccccccccccsccccccccccccccc" />
      <path
         style="color:#000000;fill:#f2a069;stroke-width:0.792885;stroke-linecap:round;stroke-linejoin:round;-inkscape-stroke:none"
         d="m 75.577475,266.23221 v -2.27108 l 1.326171,-1.32617 c 0.157893,-0.1579 0.264743,-0.36039 0.304688,-0.58008 l 0.427734,-2.35352 c 0.04649,-0.25571 0.001,-0.51907 -0.128906,-0.74414 l -2.302734,-3.99023 c -0.246155,-0.42635 -0.751989,-0.34232 -0.966798,-0.0705 l -0.101563,0.1289 c -0.254991,0.32172 -0.288014,0.76795 -0.08203,1.12305 l 1.011719,1.74609 0.458981,-0.26562 -1.013672,-1.7461 c -0.09769,-0.1684 -0.08187,-0.37671 0.03906,-0.52929 l 0.101562,-0.12891 c 0.0303,-0.0382 0.06936,-0.0344 0.09375,0.008 l 2.302735,3.98828 c 0.06732,0.11661 0.09049,0.25425 0.06641,0.38672 l -0.427734,2.35352 c -0.0207,0.11385 -0.07443,0.21895 -0.15625,0.30078 l -1.404297,1.40234 c -0.04923,0.0499 -0.07663,0.11738 -0.07617,0.1875 v 2.38046 z"
         id="path507808"
         sodipodi:nodetypes="cccccccccccccccccccccccc" />
      <path
         style="color:#000000;fill:#f2a069;stroke-width:0.792885;stroke-linecap:round;stroke-linejoin:round;-inkscape-stroke:none"
         d="m 75.085286,258.74805 -1.427734,1.84765 c -0.102202,0.1324 -0.194167,0.27177 -0.275391,0.41797 l -1.082031,1.94922 c -0.10611,0.191 -0.162111,0.40455 -0.16211,0.62305 v 2.64627 h 0.529297 v -2.64627 c 0,-0.12859 0.03326,-0.25478 0.0957,-0.36719 l 1.082032,-1.94727 c 0.06834,-0.12301 0.146429,-0.24016 0.232422,-0.35156 l 1.425781,-1.84765 c 0.07126,-0.0923 0.192962,-0.085 0.251953,0.0156 l 0.07617,0.13281 c 0.139859,0.23847 0.131861,0.53366 -0.02148,0.76367 l -1.246093,1.86719 c -0.08108,0.12186 -0.04783,0.28639 0.07422,0.36719 0.121356,0.0815 0.285771,0.0491 0.367188,-0.0723 l 1.244141,-1.86914 c 0.26507,-0.3976 0.280816,-0.91202 0.03906,-1.32422 l -0.07813,-0.13281 c -0.119731,-0.20415 -0.327471,-0.31637 -0.542967,-0.33006 -0.215495,-0.0137 -0.437398,0.0705 -0.582028,0.25785 z"
         id="path507810"
         sodipodi:nodetypes="ccccsccsccccccccccccccc" />
      <path
         style="color:#000000;fill:#f2a069;stroke-width:0.792885;stroke-linecap:round;stroke-linejoin:round;-inkscape-stroke:none"
         d="m 74.229817,256.09766 -0.291015,0.33984 c -0.335712,0.39271 -0.38723,0.95687 -0.128907,1.4043 l 0.933594,1.61718 c 0.07345,0.12607 0.235101,0.16889 0.361328,0.0957 0.126786,-0.0728 0.17052,-0.23459 0.09766,-0.36133 l -0.933594,-1.61719 c -0.147147,-0.25487 -0.118964,-0.57122 0.07227,-0.79492 l 0.04687,-0.0547 1.333985,2.3125 c 0.07277,0.1268 0.234578,0.17055 0.361328,0.0977 0.126786,-0.0728 0.17052,-0.23459 0.09766,-0.36133 l -1.521484,-2.63672 z"
         id="path507812"
         sodipodi:nodetypes="cccccccccccccc" />
      <path
         style="color:#000000;fill:#f2a069;stroke-width:0.792885;stroke-linecap:round;stroke-linejoin:round;-inkscape-stroke:none"
         d="m 74.235677,257.74414 a 0.26460996,0.26460996 0 0 0 -0.22461,0.0918 l -0.289062,0.33984 c -0.335711,0.39271 -0.389183,0.95687 -0.13086,1.4043 l 0.453125,0.7832 a 0.2645835,0.2645835 0 0 0 0.361329,0.0977 0.2645835,0.2645835 0 0 0 0.09766,-0.36133 l -0.453125,-0.78516 c -0.147147,-0.25486 -0.11701,-0.57122 0.07422,-0.79492 l 0.04687,-0.0547 0.572265,0.99414 a 0.2645835,0.2645835 0 0 0 0.361328,0.0977 0.2645835,0.2645835 0 0 0 0.09766,-0.36328 L 74.440755,257.875 a 0.26460996,0.26460996 0 0 0 -0.205078,-0.13086 z"
         id="path507814" />
      <path
         style="color:#000000;fill:#f2a069;stroke-width:0.792885;stroke-linecap:round;stroke-linejoin:round;-inkscape-stroke:none"
         d="m 76.984375,261.98242 -0.503906,-0.22461 c -0.133219,-0.0598 -0.289687,-3.5e-4 -0.34961,0.13281 -0.05979,0.13322 -3.46e-4,0.28969 0.132813,0.34961 l 0.505859,0.22657 z"
         id="path507816"
         sodipodi:nodetypes="cccccc" />
      <path
         style="color:#000000;fill:#f2a069;stroke-width:0.792885;stroke-linecap:round;stroke-linejoin:round;-inkscape-stroke:none"
         d="m 75.314453,263.58594 h -0.265625 c -0.146175,5e-4 -0.264246,0.11945 -0.263672,0.26562 5.01e-4,0.14541 0.118258,0.26317 0.263672,0.26367 h 0.265625 z"
         id="path507818"
         sodipodi:nodetypes="cccccc" />
      <path
         id="path2141357"
         style="color:#000000;fill:#3a4d5c;fill-opacity:1;stroke-width:2.99673;stroke-linecap:round;stroke-linejoin:round;-inkscape-stroke:none"
         d="m 265.00195,-100.00391 v 2.001957 h 2 v -2.001957 z m 0,4.001957 v 2 h 2 v -2 z m 0,4 v 0.841797 L 265.77148,-90 h 2 l -0.76953,-1.160156 v -0.841797 z"
         transform="matrix(0.26458334,0,0,0.26458334,0,280.06666)" />
      <path
         id="path2142573"
         style="color:#000000;fill:#de9902;fill-opacity:1;stroke-width:2.99673;stroke-linecap:round;stroke-linejoin:round;-inkscape-stroke:none"
         d="m 271.23633,-84.779297 c -0.59559,0.194335 -1.18725,0.300242 -1.77344,0.341797 l 4.74414,7.148438 c 1.43027,2.247533 -0.24416,5.292968 -2.9082,5.292968 h 2 c 3.04532,0 4.17053,-3.106547 2.9082,-5.292968 z"
         transform="matrix(0.26458334,0,0,0.26458334,0,280.06666)"
         sodipodi:nodetypes="ccccccc" />
      <path
         id="path521202"
         style="fill:#de9902;fill-opacity:1;stroke:none;stroke-width:1.58577;stroke-linecap:round;stroke-linejoin:round;stop-color:#000000"
         d="m 252.99414,-83.498047 c 2.5046,-1.44574 3.88244,-2.908203 6.90625,-2.908203 3.1071,0.05182 7.13132,3.000726 11.33789,1.626953 l 4.96875,7.490235 c 0.56359,0.885626 0.63833,1.892756 0.36719,2.791015 -0.0854,-0.269928 -0.20491,-0.536017 -0.36719,-0.791015 l -4.96875,-7.490235 c -4.20657,1.373783 -8.23079,-1.575133 -11.33789,-1.626953 -3.18342,0 -5.89066,2.321851 -9.00292,4.118718 z"
         transform="matrix(0.26458334,0,0,0.26458334,0,280.06666)"
         sodipodi:nodetypes="cccccccccc" />
    </g>
  </g>
</svg>
